<svg xmlns="http://www.w3.org/2000/svg" xmlns:xlink="http://www.w3.org/1999/xlink" width="32" height="32" class="icon" p-id="1107" t="1565236134865" version="1.1" viewBox="0 0 1024 1024"><defs><style type="text/css"/></defs><path fill="#fff" d="M753.6 611.52a32 32 0 1 1 28.8 56.96l-256 128a32 32 0 0 1-28.8 0l-256-128a32 32 0 0 1 28.8-56.96L512 732.16z m0-288a32 32 0 1 1 28.8 56.96l-256 128a32 32 0 0 1-28.8 0l-256-128a32 32 0 1 1 28.8-56.96L512 444.16z" class="selected" data-spm-anchor-id="a313x.7781069.0.i1" p-id="1108"/></svg>